<svg xmlns="http://www.w3.org/2000/svg" xmlns:xlink="http://www.w3.org/1999/xlink" width="487" height="341.996" viewBox="0 0 487 341.996">
  <defs>
    <linearGradient id="linear-gradient" x1="-4.101" y1="3.278" x2="8.094" y2="-4.761" gradientUnits="objectBoundingBox">
      <stop offset="0" stop-color="#ddbf66"/>
      <stop offset="1" stop-color="#c69849"/>
    </linearGradient>
    <linearGradient id="linear-gradient-2" x1="-4.354" y1="3.842" x2="7.831" y2="-4.233" xlink:href="#linear-gradient"/>
    <linearGradient id="linear-gradient-3" x1="-3.715" y1="4.413" x2="16.188" y2="-8.77" xlink:href="#linear-gradient"/>
    <linearGradient id="linear-gradient-4" x1="-5.246" y1="3.201" x2="14.601" y2="-9.932" xlink:href="#linear-gradient"/>
    <linearGradient id="linear-gradient-5" x1="-3.883" y1="5.658" x2="16.053" y2="-7.536" xlink:href="#linear-gradient"/>
    <linearGradient id="linear-gradient-6" x1="-3.583" y1="4.895" x2="16.307" y2="-8.265" xlink:href="#linear-gradient"/>
    <linearGradient id="linear-gradient-7" x1="-4.072" y1="3.924" x2="15.794" y2="-9.238" xlink:href="#linear-gradient"/>
    <linearGradient id="linear-gradient-8" x1="-24.909" y1="23.379" x2="49.26" y2="-33.046" xlink:href="#linear-gradient"/>
    <linearGradient id="linear-gradient-9" x1="-24.401" y1="26.169" x2="49.864" y2="-30.368" xlink:href="#linear-gradient"/>
    <linearGradient id="linear-gradient-10" x1="-63.067" y1="63.699" x2="34.572" y2="-10.545" xlink:href="#linear-gradient"/>
    <linearGradient id="linear-gradient-11" x1="-61.701" y1="59.575" x2="35.937" y2="-14.67" xlink:href="#linear-gradient"/>
    <linearGradient id="linear-gradient-12" x1="14.93" y1="-3.968" x2="-1.658" y2="13.44" xlink:href="#linear-gradient"/>
    <linearGradient id="linear-gradient-13" x1="15.226" y1="-4.742" x2="-1.297" y2="12.632" xlink:href="#linear-gradient"/>
    <linearGradient id="linear-gradient-14" x1="12.426" y1="-3.43" x2="-4.162" y2="13.976" xlink:href="#linear-gradient"/>
    <linearGradient id="linear-gradient-15" x1="-124.367" y1="2.583" x2="-149.601" y2="6.379" xlink:href="#linear-gradient"/>
    <linearGradient id="linear-gradient-16" x1="-24.612" y1="-0.792" x2="-29.802" y2="5.064" xlink:href="#linear-gradient"/>
    <linearGradient id="linear-gradient-17" x1="-1.218" y1="-17.293" x2="-9.463" y2="-10.678" xlink:href="#linear-gradient"/>
    <linearGradient id="linear-gradient-18" x1="-2.525" y1="-0.374" x2="1.825" y2="0.883" gradientUnits="objectBoundingBox">
      <stop offset="0.006" stop-color="#f3efdd"/>
      <stop offset="1" stop-color="#d8b242"/>
      <stop offset="1" stop-color="#c49137"/>
    </linearGradient>
    <linearGradient id="linear-gradient-19" x1="-2.518" y1="-0.373" x2="1.82" y2="0.883" xlink:href="#linear-gradient-18"/>
    <linearGradient id="linear-gradient-20" x1="-66.762" y1="59.766" x2="30.876" y2="-14.478" xlink:href="#linear-gradient"/>
    <linearGradient id="linear-gradient-21" x1="-67.196" y1="63.261" x2="30.443" y2="-10.984" xlink:href="#linear-gradient"/>
    <linearGradient id="linear-gradient-22" x1="-60.968" y1="62.431" x2="36.671" y2="-11.813" xlink:href="#linear-gradient"/>
    <linearGradient id="linear-gradient-23" x1="-62.467" y1="61.602" x2="35.086" y2="-12.664" xlink:href="#linear-gradient"/>
    <linearGradient id="linear-gradient-24" x1="-2.538" y1="-0.375" x2="1.828" y2="0.883" xlink:href="#linear-gradient-18"/>
    <linearGradient id="linear-gradient-25" x1="-4.531" y1="-0.914" x2="2.259" y2="0.995" xlink:href="#linear-gradient-18"/>
    <linearGradient id="linear-gradient-26" x1="-4.545" y1="-0.914" x2="2.269" y2="0.994" xlink:href="#linear-gradient-18"/>
    <linearGradient id="linear-gradient-27" x1="5.395" y1="0.021" x2="-7.378" y2="3.574" gradientUnits="objectBoundingBox">
      <stop offset="0" stop-color="#575757"/>
      <stop offset="1" stop-color="#33312f"/>
    </linearGradient>
    <linearGradient id="linear-gradient-28" x1="21.094" y1="-13.185" x2="-20.817" y2="38.16" xlink:href="#linear-gradient-27"/>
    <linearGradient id="linear-gradient-29" x1="1.147" y1="-0.278" x2="0.129" y2="1.434" xlink:href="#linear-gradient-27"/>
    <linearGradient id="linear-gradient-30" x1="3.682" y1="-0.98" x2="0.007" y2="1.186" xlink:href="#linear-gradient-27"/>
  </defs>
  <g id="Object" transform="translate(-41.49 -110.8)">
    <g id="Group_60" data-name="Group 60" transform="translate(81.49 110.8)">
      <g id="Group_58" data-name="Group 58">
        <path id="Path_114" data-name="Path 114" d="M419,405.281l10.9.222-6.081,5.859a.446.446,0,0,0,.63.63l6.081-5.859-.26,12.793a.575.575,0,0,0,1.15.037l.223-12.83,7.157,7.453a.446.446,0,0,0,.63-.63l-7.157-7.453,10.9.222a.575.575,0,0,0,.037-1.149l-10.9-.223,6.081-5.859a.426.426,0,0,0,0-.63.458.458,0,0,0-.3-.148.421.421,0,0,0-.3.111l-6.081,5.859.26-12.793a.575.575,0,0,0-1.15-.037l-.26,12.793L423.41,396.2a.458.458,0,0,0-.3-.148.421.421,0,0,0-.3.111.426.426,0,0,0,0,.63l7.157,7.453-10.9-.222a.579.579,0,0,0-.593.556A.54.54,0,0,0,419,405.281Z" transform="translate(-293.513 -286.66)" fill="url(#linear-gradient)"/>
        <path id="Path_115" data-name="Path 115" d="M655.1,924.838l18.689-.222L663.663,935a.734.734,0,0,0,1.038,1.038l10.123-10.383.26,21.915a.983.983,0,0,0,1.965-.037l-.26-21.915L689.471,938a.734.734,0,1,0,1.038-1.038l-12.682-12.385,18.689-.222a.983.983,0,1,0-.037-1.965l-18.689.222,10.123-10.383a.717.717,0,0,0,0-1.038.717.717,0,0,0-1.038,0l-10.123,10.383-.26-21.914a.983.983,0,0,0-1.965.037l.26,21.915L662.106,909.19a.717.717,0,0,0-1.038,0,.717.717,0,0,0,0,1.038l12.682,12.385-18.689.222a.944.944,0,0,0-.964,1A.974.974,0,0,0,655.1,924.838Z" transform="translate(-441.77 -606.539)" fill="url(#linear-gradient-2)"/>
        <path id="Path_116" data-name="Path 116" d="M105.226,674.176l-10.457.63,5.377-6.081a.42.42,0,0,0-.63-.556l-5.377,6.118L93.4,662.013a.557.557,0,1,0-1.112.074l.742,12.274-7.453-6.6a.42.42,0,1,0-.556.63l7.453,6.6-10.457.63a.557.557,0,0,0,.074,1.112l10.457-.63-5.377,6.081a.414.414,0,0,0,.037.593.421.421,0,0,0,.3.111.337.337,0,0,0,.3-.148l5.377-6.081.742,12.274a.557.557,0,1,0,1.112-.074l-.742-12.274,7.453,6.6a.421.421,0,0,0,.3.111.337.337,0,0,0,.3-.148.414.414,0,0,0-.037-.593l-7.453-6.6,10.457-.63a.57.57,0,0,0,.519-.593A.6.6,0,0,0,105.226,674.176Z" transform="translate(-121.49 -457.292)" fill="url(#linear-gradient-3)"/>
        <path id="Path_117" data-name="Path 117" d="M276.443,1020.457l-10.494-.3,5.933-5.562a.42.42,0,1,0-.593-.593l-5.933,5.562.371-12.311a.556.556,0,0,0-1.112,0l-.371,12.311-6.823-7.231a.42.42,0,1,0-.593.593l6.823,7.231-10.494-.3a.556.556,0,1,0,0,1.112l10.494.3-5.933,5.562a.385.385,0,0,0,0,.593.743.743,0,0,0,.3.148.421.421,0,0,0,.3-.111l5.933-5.562-.371,12.311a.556.556,0,0,0,1.112,0l.371-12.311,6.823,7.231a.745.745,0,0,0,.3.148.421.421,0,0,0,.3-.111.385.385,0,0,0,0-.593l-6.823-7.231,10.494.3a.546.546,0,0,0,.556-.556C276.962,1020.716,276.739,1020.457,276.443,1020.457Z" transform="translate(-199.152 -704.496)" fill="url(#linear-gradient-4)"/>
        <path id="Path_118" data-name="Path 118" d="M1007.737,886.4l-8.491.519,4.375-4.969a.342.342,0,1,0-.519-.445l-4.375,4.969-.593-9.975a.446.446,0,0,0-.89.074l.593,9.975-6.044-5.34a.342.342,0,0,0-.445.519l6.044,5.34-8.491.519a.447.447,0,0,0,.074.89l8.491-.519-4.375,4.969a.347.347,0,0,0,.037.482.313.313,0,0,0,.26.074.264.264,0,0,0,.222-.111l4.375-4.969.593,9.975a.447.447,0,0,0,.89-.074l-.593-9.975,6.044,5.34a.313.313,0,0,0,.26.074.224.224,0,0,0,.222-.111.347.347,0,0,0-.037-.482l-6.044-5.34,8.491-.519a.411.411,0,0,0,.408-.482A.482.482,0,0,0,1007.737,886.4Z" transform="translate(-632.168 -622.315)" fill="url(#linear-gradient-5)"/>
        <path id="Path_119" data-name="Path 119" d="M1013.284,214.494l-12.607.593,6.6-7.231a.5.5,0,0,0-.742-.667l-6.6,7.231-.7-14.8a.669.669,0,0,0-1.335.074l.7,14.8-8.862-8.046a.5.5,0,0,0-.667.742l8.862,8.046-12.607.593a.668.668,0,1,0,.074,1.335l12.607-.593-6.6,7.231a.482.482,0,0,0,.037.7.476.476,0,0,0,.371.148.553.553,0,0,0,.334-.148l6.6-7.231.7,14.8a.668.668,0,1,0,1.335-.074l-.7-14.8,8.862,8.046a.476.476,0,0,0,.371.148.552.552,0,0,0,.334-.148.482.482,0,0,0-.037-.7l-8.862-8.121,12.607-.593a.644.644,0,0,0,.63-.7A.691.691,0,0,0,1013.284,214.494Z" transform="translate(-589.78 -166.29)" fill="url(#linear-gradient-6)"/>
        <path id="Path_120" data-name="Path 120" d="M531.03,130.638l-15.388-.074,8.491-8.417a.6.6,0,0,0-.853-.853l-8.491,8.417.074-18.1a.816.816,0,1,0-1.632,0l-.074,18.1-10.271-10.383a.6.6,0,1,0-.853.853L512.3,130.564l-15.388-.074a.816.816,0,1,0,0,1.632l15.388.074-8.491,8.417a.564.564,0,0,0,0,.853.614.614,0,0,0,.445.185.771.771,0,0,0,.445-.185l8.491-8.417-.074,18.1a.816.816,0,0,0,1.632,0l.074-18.1L525.1,143.431a.614.614,0,0,0,.445.185.77.77,0,0,0,.445-.185.564.564,0,0,0,0-.853L515.716,132.2l15.388.074a.823.823,0,0,0,.816-.816A.948.948,0,0,0,531.03,130.638Z" transform="translate(-342.361 -110.8)" fill="url(#linear-gradient-7)"/>
        <path id="Path_121" data-name="Path 121" d="M128.162,939.686a3.7,3.7,0,1,1-3.968-3.411A3.7,3.7,0,0,1,128.162,939.686Z" transform="translate(-146.207 -630.175)" fill="url(#linear-gradient-8)"/>
        <circle id="Ellipse_5" data-name="Ellipse 5" cx="3.56" cy="3.56" r="3.56" transform="translate(263.053 252.333)" fill="url(#linear-gradient-9)"/>
        <path id="Path_122" data-name="Path 122" d="M1047.783,443.412a2.1,2.1,0,1,1-2.262-1.928A2.067,2.067,0,0,1,1047.783,443.412Z" transform="translate(-686.837 -318.859)" fill="url(#linear-gradient-10)"/>
        <path id="Path_123" data-name="Path 123" d="M422.682,262.512a2.1,2.1,0,1,1-2.262-1.928A2.067,2.067,0,0,1,422.682,262.512Z" transform="translate(-303.527 -205.037)" fill="url(#linear-gradient-11)"/>
        <path id="Path_124" data-name="Path 124" d="M139.382,458.112a2.1,2.1,0,1,1-2.262-1.928A2.067,2.067,0,0,1,139.382,458.112Z" transform="translate(-115.277 -328.108)" fill="url(#linear-gradient-12)"/>
        <path id="Path_125" data-name="Path 125" d="M130.678,175.7a2.6,2.6,0,1,1-2.781-2.41A2.637,2.637,0,0,1,130.678,175.7Z" transform="translate(-159.168 -150.119)" fill="url(#linear-gradient-13)"/>
        <path id="Path_126" data-name="Path 126" d="M234.082,829.312a2.1,2.1,0,1,1-2.262-1.928A2.063,2.063,0,0,1,234.082,829.312Z" transform="translate(-174.861 -561.664)" fill="url(#linear-gradient-14)"/>
        <g id="Group_55" data-name="Group 55" transform="translate(286.226 65.149)">
          <path id="Path_127" data-name="Path 127" d="M854.806,327.99h-.148a1.365,1.365,0,0,1-1.261-1.446c.63-8.677,1.261-17.28,1.891-25.919l.927-12.867a1.357,1.357,0,0,1,2.707.185l-.927,12.867q-.946,12.9-1.891,25.919A1.333,1.333,0,0,1,854.806,327.99Z" transform="translate(-853.395 -286.495)" fill="url(#linear-gradient-15)"/>
        </g>
        <g id="Group_56" data-name="Group 56" transform="translate(311.392 96.539)">
          <path id="Path_128" data-name="Path 128" d="M922.648,398.052a1.373,1.373,0,0,1-.964-.371,1.354,1.354,0,0,1-.037-1.928c5.377-5.6,11.013-11.2,16.5-16.612,2.521-2.484,5.154-5.08,7.676-7.6a1.363,1.363,0,0,1,1.928,1.928c-2.559,2.559-5.154,5.117-7.676,7.639-5.451,5.414-11.124,11.013-16.464,16.575A1.649,1.649,0,0,1,922.648,398.052Z" transform="translate(-921.262 -371.15)" fill="url(#linear-gradient-16)"/>
        </g>
        <g id="Group_57" data-name="Group 57" transform="translate(241.244 95.143)">
          <path id="Path_129" data-name="Path 129" d="M747.664,391.2a1.33,1.33,0,0,1-1.149-.593l-14.2-21.1a1.363,1.363,0,0,1,2.262-1.52l14.2,21.1a1.365,1.365,0,0,1-.371,1.891A1.337,1.337,0,0,1,747.664,391.2Z" transform="translate(-732.085 -367.385)" fill="url(#linear-gradient-17)"/>
        </g>
        <path id="Path_130" data-name="Path 130" d="M190.164,223.946l-.334-1.446-.445,2.484A31.275,31.275,0,0,1,177,244.711h0a38.15,38.15,0,0,1,12.533,20.8l.334,1.446.445-2.484A31.276,31.276,0,0,1,202.7,244.748h0A38.151,38.151,0,0,1,190.164,223.946Z" transform="translate(-151.585 -191.081)" fill="url(#linear-gradient-18)"/>
        <path id="Path_131" data-name="Path 131" d="M734.307,204.467l-.148-.667-.222,1.15a14.291,14.291,0,0,1-5.636,8.973h0a17.328,17.328,0,0,1,5.71,9.456l.148.667.223-1.15a14.291,14.291,0,0,1,5.636-8.973h0A17.2,17.2,0,0,1,734.307,204.467Z" transform="translate(-468.46 -179.315)" fill="url(#linear-gradient-19)"/>
        <path id="Path_132" data-name="Path 132" d="M479.482,1018.012a2.1,2.1,0,1,1-2.262-1.928A2.067,2.067,0,0,1,479.482,1018.012Z" transform="translate(-329.266 -680.394)" fill="url(#linear-gradient-20)"/>
        <path id="Path_133" data-name="Path 133" d="M1005.482,1062.712a2.1,2.1,0,1,1-2.262-1.928A2.109,2.109,0,0,1,1005.482,1062.712Z" transform="translate(-650.222 -748.519)" fill="url(#linear-gradient-21)"/>
        <path id="Path_134" data-name="Path 134" d="M845.682,135.521a2.136,2.136,0,0,1-1.928,2.262,2.109,2.109,0,0,1-2.262-1.928,2.1,2.1,0,1,1,4.19-.334Z" transform="translate(-509.677 -125.138)" fill="url(#linear-gradient-22)"/>
        <circle id="Ellipse_6" data-name="Ellipse 6" cx="1.854" cy="1.854" r="1.854" transform="translate(186.778 141.796)" fill="url(#linear-gradient-23)"/>
        <path id="Path_135" data-name="Path 135" d="M407.852,833.1l-.148-.7-.222,1.224a15.483,15.483,0,0,1-6.081,9.715h0a18.467,18.467,0,0,1,6.155,10.234l.148.7.223-1.224a15.483,15.483,0,0,1,6.081-9.715h0A18.68,18.68,0,0,1,407.852,833.1Z" transform="translate(-282.776 -564.827)" fill="url(#linear-gradient-24)"/>
        <path id="Path_136" data-name="Path 136" d="M1062.568,661.718l.185.816.26-1.446a18.015,18.015,0,0,1,7.194-11.421h0a22.026,22.026,0,0,1-7.268-12.051l-.185-.816-.26,1.446a18.015,18.015,0,0,1-7.194,11.421h0A22.027,22.027,0,0,1,1062.568,661.718Z" transform="translate(-623.206 -441.756)" fill="url(#linear-gradient-25)"/>
        <path id="Path_137" data-name="Path 137" d="M804.795,1050.8l.111.556.185-.964a12.345,12.345,0,0,1,4.82-7.713h0a14.932,14.932,0,0,1-4.895-8.121l-.111-.556-.185.964a12.345,12.345,0,0,1-4.82,7.713h0A14.466,14.466,0,0,1,804.795,1050.8Z" transform="translate(-503.51 -711.673)" fill="url(#linear-gradient-26)"/>
      </g>
      <g id="Group_59" data-name="Group 59" transform="translate(43.135 112.904)">
        <path id="Path_138" data-name="Path 138" d="M1026.98,447.092a14.676,14.676,0,0,0,.185-4.932c-.148-1.15-.371-2.3-1.706-2.521-1.483-.26-2.04.927-2.522,2a10.025,10.025,0,0,0-.408,1.594,25.113,25.113,0,0,0-1.669,6.563,14.276,14.276,0,0,0-.519,1.335c-3.931,14.239-6.155,28.774-8.306,43.347-.853,5.747-1.669,11.495-2.447,17.28a14.409,14.409,0,0,0,.482,7.3c1.112,2.855,2.855,3.189,4.969.89a12.194,12.194,0,0,0,2.892-6.674c2.373-14.387,4.858-28.737,7.082-43.125C1026.164,462.517,1027.239,454.879,1026.98,447.092Z" transform="translate(-708.428 -430.585)" fill="url(#linear-gradient-27)"/>
        <path id="Path_139" data-name="Path 139" d="M1002.927,677.776a2.489,2.489,0,0,0-2.855,2.521,2.575,2.575,0,0,0,2.521,3.115c1.706.148,2.6-.89,2.929-2.67C1005.449,679.148,1004.744,677.887,1002.927,677.776Z" transform="translate(-702.582 -580.434)" fill="url(#linear-gradient-28)"/>
        <path id="Path_140" data-name="Path 140" d="M599.226,447.328c-5.3.408-10.605.853-15.908,1.3l-2.373.111c-6.452-.111-12.83-1.112-19.245-1.483a17.217,17.217,0,0,0-4.746-.63,13.436,13.436,0,0,1,.074-2.114,69.888,69.888,0,0,0,.593-14.461c-.445-4.635-.667-9.344-3.411-13.386-1.78-2.077-3.152-1.817-4.487.853a6.981,6.981,0,0,0-1.187,3.374,10.9,10.9,0,0,0-1.038,4.487,76.87,76.87,0,0,0-2.373,13.609c-.3,1.928-.63,3.856-.927,5.785a7.819,7.819,0,0,1-3.078.037c-5.3-.408-10.605-.927-15.908-.482a41.009,41.009,0,0,0-12.57.964,44.276,44.276,0,0,0-15.982,4.116c-1.632.222-2.855,1.261-4.264,1.965a1.226,1.226,0,0,0-.742,1.557c.26.742.927.779,1.594.593,1.854-.593,3.708-1.187,5.6-1.817a130.3,130.3,0,0,1,16.538-2.225c2.373.074,4.709.185,7.082.223,6.3.037,12.57.927,18.874,1.224,1.632.111,1.891.964,1.669,2.484a155,155,0,0,0-1.706,19.393c-.148,7.157-.371,14.35.7,21.433.89,5.822-1.743,13.052-4.413,18.169-.445.816-1,1.706-1.928,1.854-.927-2.781-.482-5.451-.593-8.306a12.3,12.3,0,0,0,.223-1.632,200.275,200.275,0,0,0-1.187-22.137,28.635,28.635,0,0,0-1.372-7.231,2.567,2.567,0,0,0-2.373-2.707,2.707,2.707,0,0,0-3.152,2.151,9.2,9.2,0,0,0-.964,3.968c-.334.148-.482,1.261-1.038.148a3.144,3.144,0,0,0-1.928-1.891,7.763,7.763,0,0,0-8.306-.742,4.561,4.561,0,0,0-2.781,2.114,35.268,35.268,0,0,0-8.269,15.574c-.7,2.929-.63,5.933-1.261,8.862a31.665,31.665,0,0,1-3.634,8.64c-.482.89-2.225,3.931-3.6,3-.927-.63.185-3.226.334-4.116l.556-4c.408-2.744.779-5.525,1.038-8.306.408-4.079,1-8.195-.3-12.237-.742-4.079-2.6-4.969-6.007-2.892-.779.482-1.557,1.038-2.336,1.557a3.229,3.229,0,0,0-1.817,1.038.37.37,0,0,0-.408.148c-.7,0-.964-.222-.742-1a29.614,29.614,0,0,0,.816-3.931c.3-2.633-.371-3.337-3.078-3.523a4.906,4.906,0,0,0-5.154,1.891,6.125,6.125,0,0,0,.63,8.974c.667.519,1.743.779,1.965,1.706s-.63,2.262-1.038,3.078c-1.038,2.188-2.262,4.227-3.448,6.341a129.864,129.864,0,0,0-6.823,13.868,37.286,37.286,0,0,0-2.3-9.159,3.429,3.429,0,0,0-.667-2.373,7.336,7.336,0,0,0-.371-1.557c-.482-1.224-1.224-2.262-2.744-2.151-1.409.111-1.928,1.224-2.262,2.373a6.357,6.357,0,0,0-.334,3.226,8.071,8.071,0,0,0-.222,3.263,1.915,1.915,0,0,0-.074.408,18.355,18.355,0,0,1-4.375,9.159c-.148.185-.3.334-.445.519-.927-.148-1.854.482-2.818.037a15.627,15.627,0,0,1-.779-6.786c.334-7.527.593-15.055,1.446-22.545.742-1.52.853-3.671,3.411-3.263l.779.89c.445.519.7,1.446,1.594,1.112.964-.371,1-1.409.853-2.262-.222-1.3-.482-2.67-1.891-3.337-3.411-2.67-7.564-2.151-10.568,1.3a8.472,8.472,0,0,0-2.521,3.411,38.085,38.085,0,0,0-3.893,18.763c.074,1.965.667,4.042.519,6.007a11.142,11.142,0,0,1-.556,2.188c-1.038,3-2.151,6.118-4.3,8.454-.074-1.854-.519-3.708-.667-5.6-.111-1.928-.185-3.856-.3-5.822a96.82,96.82,0,0,0-1.112-11.792,3.815,3.815,0,0,0-.3-1.372c-.482-5.265-1.187-10.457-4.45-14.869-1.854-2.447-3.523-2.744-5.97-1.075-3.152,2.336-4.635,5.747-5.673,9.344-1.112,3.893-2,7.824-3,11.755-.185.779-.371,1.557-1.112.3a52.848,52.848,0,0,0-2.966-13.571A2.494,2.494,0,0,0,409,485.075c-1.52-.074-2.262,1.038-2.633,2.336a8.049,8.049,0,0,0-.371,3.968c-.63,2.559-.148,5.488-.371,8.084a5.764,5.764,0,0,1-1.891,4.264c-.816.89-1.669,1.78-2.521,2.6-.63-2.447-1.15-4.969-3.189-6.675-2.6-2.114-5.191-.408-6.081,2.447-.927,2.818-.519,7.045,2.521,8.417a4.568,4.568,0,0,0,3.56.111h0a15.044,15.044,0,0,1,.445,5.154,21.579,21.579,0,0,1-3.523,9.493,3.176,3.176,0,0,1-1.557,1.483,2.453,2.453,0,0,1-2.077-.408,8.521,8.521,0,0,1-3.6-5.414c-1.594-8.454-2.41-16.983-1.335-25.586.3-2.3,2.114-10.271,6.007-7.231,1.409,1.112,1.743,3.189,2.225,4.858.148.482.371,1.038.853,1.112a.856.856,0,0,0,.816-.482,2.133,2.133,0,0,0,.185-.964,13.03,13.03,0,0,0-1.854-7.045c-2.039-3.115-6.9-3.745-9.9-1.743a8.235,8.235,0,0,0-3.893,3.374,21.617,21.617,0,0,0-3.708,8.195,53.008,53.008,0,0,0,.037,23.4c1,4.413,2.929,8.417,7.194,10.716,3.708,2.559,7.194,2.447,10.234-.26a4.584,4.584,0,0,0,2.188-2.6,6.7,6.7,0,0,0,1.669-3.448,3.784,3.784,0,0,0,.816-2.484,19.611,19.611,0,0,0,1.224-10.123.837.837,0,0,1,.074-.593,1.126,1.126,0,0,1,.26-.185c2.188-1.15,3.523-2.892,5.117-4.783.111,1.632.185,2.744.3,3.893.408,3.411.185,6.934,1.372,10.234a9.9,9.9,0,0,0,1.928,5.265,3.652,3.652,0,0,0,3.782,1.483,3.554,3.554,0,0,0,2.818-2.892,9.746,9.746,0,0,0,.185-4c.223-3.189.482-6.415.7-9.6.148-.519.3-1.038.408-1.594,1.446-7.639,2.6-15.351,5.97-22.508.593-.63,1.15-1.3,1.743-1.928.964.779.927,1.891,1.038,2.966.779,7.194.593,14.424,1.15,21.618a5.889,5.889,0,0,0,.26-.742v.111a1.205,1.205,0,0,1-.26.63,46.2,46.2,0,0,0,.7,11.532,9.952,9.952,0,0,0,2.41,5.525c2.744,3.782,6.378,3.745,8.343-.074,1.038-1.3,1.706-3.523,2.3-5.08.408-1.149.742-2.336,1.075-3.523.334-1.224.667-2.447.927-3.708.742,3,1.965,6.007,4.746,7.713a3.276,3.276,0,0,0,2.484,1.261c3.115,1,5.6-.111,7.676-2.41a2.374,2.374,0,0,0,1.335-1.52c1-.445.779-2,2.114-2.114.074.593.111,1.187.185,1.78.185,2.521.371,5.08.593,7.6a.194.194,0,0,0-.074.3c-6.3,13.423-12.051,26.995-13.349,42.012-.334,3.671-1.15,7.416.148,11.087a6.555,6.555,0,0,0,2.262,4.635,3.484,3.484,0,0,0,2,1.557c4.264,1.557,7.824.074,11.05-2.633,3.819-2.67,5.562-6.674,6.674-10.9a99.146,99.146,0,0,0-.185-53.359,3.564,3.564,0,0,1-.445-1.817c.148.593.3,1.224.445,1.817a7.26,7.26,0,0,1,1-4.932c2.076-4,3.968-8.121,5.9-12.2a75.212,75.212,0,0,0,6.267-11.2c1.372-.371,2.781-.519,3.782-1.669,1.224-.185,1.743-1.743,3.115-1.669-.3.742-.593,1.483-.89,2.188-2.484,5.636-4.487,11.421-4.6,17.613-.074,3.152.26,6.489,2.188,9.122a7.656,7.656,0,0,0,8.566,2.744c4.524-1.78,6.674-7.379,7.75-11.68-.371,1.52,1.446,4.635,2.151,5.933a12.158,12.158,0,0,0,4.746,4.227c1.928,1.038,4,1.928,6.118.853a14.335,14.335,0,0,0,4.969-4.338c1.261-1.743,2.3-3.634,3.6-5.377a18.58,18.58,0,0,0,2.892,8.343c1.483,2.114,4.895,4.19,7.3,2.262a20.53,20.53,0,0,0,6.044-7.527,25.019,25.019,0,0,0,1.78-9.307c2.151,5.747,3.411,11.384,8.566,15.277,2.892,2.188,5.525,2.188,8.232-.037,5.747-4.709,6.934-12.459,8.6-19.171.667-2.67.556-5.488,1.743-8.009,1.075,1.743,2.447,3.337,3.411,5.154,1.075,2,1.038,3.152-.371,4.969-4.227,5.3-7.9,14.647-4.487,21.173.779,2.114,2.521,2.966,4.487,3.411,5.6,1.261,11.273-3,12.274-9.456a27.887,27.887,0,0,0-1.335-13.5,18.138,18.138,0,0,0-2.855-5.822c-1.224-1.409-.964-2.336.185-3.931a51.582,51.582,0,0,1,5.451-6.267c.26-.26.556-.7.26-.964-.222-.222-.593-.037-.853.185a38.339,38.339,0,0,0-4.116,3.671c-.853.89-2.521,2.225-2.707,3.448-2.6-3.374-4.82-6.934-8.38-9.418.371-1.78.667-3.56-.371-5.228a1.775,1.775,0,0,0-1.557-1.372h0c-2.484-.816-3.226-.408-4.153,2.262-.111.074-.111.185-.074.334a4.279,4.279,0,0,0,.185,3.745.926.926,0,0,0,.148.26,8.583,8.583,0,0,0,2.225,4.153,26.539,26.539,0,0,1-.667,6.155c-.334,1.669-.3,3.3-.63,4.969a66.612,66.612,0,0,1-3.374,11.569c-.779,2-1.706,4.042-3.486,5.228a.838.838,0,0,1-.556.185,7.016,7.016,0,0,1-2.3-1.669c-.853-.853-.89-2.3-1.038-3.448-.593-4.932-1.112-9.863-1.669-14.8-.26-3.3-.26-6.674-.816-9.938-.26-1.52-.408-3-.519-4.524-.037-.927-.074-1.891-.111-2.818-.074-8.121,1.743-16.056,3.152-24.028.408-.037.816-.037,1.224-.074a53.143,53.143,0,0,0,9.678.927c5.3.222,10.642.667,15.87-.482a87.353,87.353,0,0,0,14.165-2.6,6.475,6.475,0,0,0,2.966-.816c.667-.26,1.372-.63,1.15-1.557C600.746,447.105,599.93,447.29,599.226,447.328ZM529.7,447.29Zm-131.488,59.7a.321.321,0,0,0-.223.111h.074c-.779-.074-1.594-.148-2.373-.222a2.065,2.065,0,0,1-1.075-1.224,1.165,1.165,0,0,0,.223-.593,4.771,4.771,0,0,0-.148-.7c.074-.667.111-1.335.185-1.965a.447.447,0,0,1,.185-.185c.148-.111.334-.223.482-.334,1.3-.148,1.669.89,2.262,1.743.63.89.371,2.114,1.112,3A.755.755,0,0,0,398.212,506.99Zm26.513-26.7h0c0-.037.037-.037,0,0C424.762,480.255,424.725,480.255,424.725,480.292ZM438.3,519.931ZM451.682,576.4h0c-.074-.037-.148-.111-.222-.148.074.037.148.037.185.074A.115.115,0,0,1,451.682,576.4Zm9.381-7.972a15.285,15.285,0,0,1-5.117,9.715,2.379,2.379,0,0,1-1.854.816c-.408-.111-.779-.3-1.187-.408a.193.193,0,0,0-.037-.3c.222-1.075-.371-1.928-.742-2.818-.111-2.151-.222-4.264-.185-6.415.3-13.386,4.932-25.586,10.308-37.563a1.741,1.741,0,0,1,.222-.334A136.676,136.676,0,0,1,461.064,568.432Zm21.544-84.581-.519.89a4.031,4.031,0,0,1-1.594-1.557,3.753,3.753,0,0,1,.519-3.041c.26-.519.593-1.149,1.187-1.261a1.9,1.9,0,0,1,1,.148,2.871,2.871,0,0,1,.593.26A31.68,31.68,0,0,1,482.607,483.852Zm42.643,2.521a4.554,4.554,0,0,0-.074.7,79.244,79.244,0,0,0-.371,11.495c.037,1.706.482,3.782.148,5.451a7.163,7.163,0,0,1-1.928,3.263c-.667.779-1.335,1.52-1.965,2.3a8.258,8.258,0,0,1-2.039,1.891c-3.3,1.891-3.671-2.892-3.856-5.154a62.582,62.582,0,0,1,.3-8.751A56.148,56.148,0,0,1,516.87,487c.593-2.484,1-5.414,2.67-7.453,1.187-1.446,1.854-1.112,3.226-.185A5.2,5.2,0,0,1,525.324,482,13.365,13.365,0,0,1,525.25,486.373Zm50.875,12.9a34.887,34.887,0,0,1,1.669,7.194,17.257,17.257,0,0,1-.26,4.6,9.563,9.563,0,0,1-4.042,5.859,2.411,2.411,0,0,1-.853.334,1.991,1.991,0,0,1-1.557-1c-1.372-2.188-.63-5.006.3-7.416a48.353,48.353,0,0,1,3.337-6.823c.334-.556.7-1.038,1-1.594A3.228,3.228,0,0,0,576.124,499.277Zm-8.936-20.913c0-.89.63-1,1.149-.667a1.481,1.481,0,0,1,.593.742c.148.593-.482,2.744-.037,3.041a4.838,4.838,0,0,1-1.409-2.114A2.256,2.256,0,0,1,567.188,478.364ZM552.5,458.044a12.908,12.908,0,0,1-.26,2.373c-.074.334-.816,2.114-.667,2.3a3.463,3.463,0,0,1-.334-2.039q.111-2.781.222-5.562a1.8,1.8,0,0,1,.037-.445c0-.371-.111-2.707.26-2.855a.317.317,0,0,1,.26,0,9.869,9.869,0,0,1,1.817.371C554.062,452.185,552.541,457.525,552.5,458.044Zm2.744-22.322c0,.853-.037,1.706-.074,2.521-.074,1.075-.185,2.151-.3,3.226-.185,1.632-.148,3.263-.334,4.895a4.882,4.882,0,0,0-2.188-.26c-.037-1.632-.037-3.226,0-4.858a45.653,45.653,0,0,0-.111-7.119.28.28,0,0,0-.037-.148,2.459,2.459,0,0,0,.371-1.372,41.061,41.061,0,0,0,0-7.082,2.865,2.865,0,0,1-.074-.556c.89-1.483.334-3.226.556-4.82a.632.632,0,0,0-.037-.26.916.916,0,0,1,.334.148,8.577,8.577,0,0,1,.482,1.372A49.3,49.3,0,0,1,555.248,435.721Z" transform="translate(-309.819 -415.284)" fill="url(#linear-gradient-29)"/>
        <path id="Path_141" data-name="Path 141" d="M258.7,540.566c-1.15-.148-1.409.779-1.557,1.669-.111.7-.185,1.409-.3,2.114-.667,3.411-1.372,6.823-2.039,10.234-1.446,4.746-2.3,9.789-6.192,13.386-2.929,1.743-5.933,2.373-9.27,1.112a17.535,17.535,0,0,1-5.043-3.411,55.59,55.59,0,0,1-8.417-18.54c-3.3-13.571-6.674-27.18-9.641-40.826a98.614,98.614,0,0,1-.26-43.051c1-4.45,2.707-8.454,6.378-11.384,2.373-1.854,6.452-3.3,9.307-1.891,2.929,1.446,4.635,4.635,6.118,7.416a46.043,46.043,0,0,1,3.486,7.676c.556,1.78.89,3.708,1.965,5.228.185.26.408.519.7.519.445,0,.7-.482.853-.927.7-2.67-.037-7.045-.816-9.678-.148-.482-.3-.927-.482-1.372a29.625,29.625,0,0,0-4.932-8.232c-1.224-1.52-3.708-4.672-6.267-6.007a10.655,10.655,0,0,0-2.188-1.446c-.037-.037-.074-.037-.111-.074a6.274,6.274,0,0,0-3.115-.7,10.006,10.006,0,0,0-6.341.185,16.761,16.761,0,0,0-2.818,1.3l-.779.445c-3.931,1.335-6.934,5.488-9.085,9.27a21.264,21.264,0,0,0-2.262,4.375c-8.973,19.134-9.085,41.9-5.822,62.444a132.991,132.991,0,0,0,3.671,14.573,139.423,139.423,0,0,0,5.562,15.463c2.114,5.228,6.712,10.345,10.308,14.61a32.337,32.337,0,0,0,6.971,6.526c4.895,3.152,12.237,5.71,17.984,4.227,9.011-2.336,12.793-9.011,14.35-17.539,1.112-3.115,1.112-6.378,1.224-9.641.556-2,.222-4.079.3-6.118C260.107,541.567,259.736,540.677,258.7,540.566Z" transform="translate(-197.819 -432.062)" fill="url(#linear-gradient-30)"/>
      </g>
      <g id="checked" transform="translate(316 205.645)">
        <circle id="Ellipse_7" data-name="Ellipse 7" cx="27.333" cy="27.333" r="27.333" transform="translate(0 0)" fill="#32ba7c"/>
        <path id="Path_142" data-name="Path 142" d="M188.8,175.281l14.055,14.055a27.315,27.315,0,0,0,20.263-26.385v-.776L212.081,152Z" transform="translate(-168.451 -135.617)" fill="#0aa06e"/>
        <g id="Group_61" data-name="Group 61" transform="translate(9.183 13.494)">
          <path id="Path_143" data-name="Path 143" d="M104.04,211.542a3.228,3.228,0,0,1,0,4.484l-2.5,2.5a3.228,3.228,0,0,1-4.484,0L86.105,207.49a3.228,3.228,0,0,1,0-4.484l2.5-2.5a3.228,3.228,0,0,1,4.484,0Z" transform="translate(-85.2 -191.581)" fill="#fff"/>
          <path id="Path_144" data-name="Path 144" d="M184.275,126.105a3.228,3.228,0,0,1,4.484,0l2.5,2.5a3.228,3.228,0,0,1,0,4.484l-18.97,18.883a3.228,3.228,0,0,1-4.484,0l-2.5-2.5a3.228,3.228,0,0,1,0-4.484Z" transform="translate(-155.864 -125.2)" fill="#fff"/>
        </g>
      </g>
    </g>
  </g>
</svg>
