<svg xmlns="http://www.w3.org/2000/svg" xmlns:xlink="http://www.w3.org/1999/xlink" width="407.49" height="398.037" viewBox="0 0 407.49 398.037">
  <defs>
    <linearGradient id="linear-gradient" x1="-0.161" y1="0.975" x2="0.048" y2="0.975" gradientUnits="objectBoundingBox">
      <stop offset="0" stop-color="#f5edd5"/>
      <stop offset="0.367" stop-color="#f3ead1"/>
      <stop offset="0.696" stop-color="#efe4c6"/>
      <stop offset="1" stop-color="#e8dab5"/>
    </linearGradient>
    <linearGradient id="linear-gradient-2" x1="-0.943" y1="1.623" x2="-0.435" y2="1.623" gradientUnits="objectBoundingBox">
      <stop offset="0" stop-color="#f47f60"/>
      <stop offset="1" stop-color="#ce5245"/>
    </linearGradient>
    <linearGradient id="linear-gradient-3" x1="-2.649" y1="3.072" x2="-1.561" y2="3.072" gradientUnits="objectBoundingBox">
      <stop offset="0" stop-color="#efc95b"/>
      <stop offset="1" stop-color="#e3a85b"/>
    </linearGradient>
    <linearGradient id="linear-gradient-4" x1="-0.636" y1="4.456" x2="0.364" y2="4.456" gradientUnits="objectBoundingBox">
      <stop offset="0" stop-color="#e8dab5"/>
      <stop offset="0.292" stop-color="#e9dbb8"/>
      <stop offset="0.553" stop-color="#ece1c3"/>
      <stop offset="0.802" stop-color="#f3ebd5"/>
      <stop offset="1" stop-color="#faf6ea"/>
    </linearGradient>
    <linearGradient id="linear-gradient-5" x1="-2.875" y1="5.329" x2="-1.5" y2="5.329" xlink:href="#linear-gradient-4"/>
    <linearGradient id="linear-gradient-6" x1="-0.964" y1="2.55" x2="0.325" y2="2.55" gradientUnits="objectBoundingBox">
      <stop offset="0" stop-color="#faf6ea"/>
      <stop offset="1" stop-color="#e8dab5"/>
    </linearGradient>
    <linearGradient id="linear-gradient-7" x1="-1.725" y1="3.537" x2="0.192" y2="3.537" gradientUnits="objectBoundingBox">
      <stop offset="0" stop-color="#e8dab5"/>
      <stop offset="0.225" stop-color="#e9dbb8"/>
      <stop offset="0.426" stop-color="#ece1c3"/>
      <stop offset="0.618" stop-color="#f3ebd5"/>
      <stop offset="0.771" stop-color="#faf6ea"/>
    </linearGradient>
    <clipPath id="clip-path">
      <path id="Path_33" data-name="Path 33" d="M239.406,385.355,76.632,300.889c-4.338-2.251-7.23-6.919-7.333-12.714l162.774,84.466C232.176,378.436,235.068,383.1,239.406,385.355Z" fill="none"/>
    </clipPath>
    <clipPath id="clip-path-2">
      <path id="Path_47" data-name="Path 47" d="M231.862,360.742,69.088,276.276c-.158-8.959,6.409-17.366,14.653-18.856l162.774,84.466C238.271,343.376,231.7,351.783,231.862,360.742Z" fill="none"/>
    </clipPath>
    <clipPath id="clip-path-3">
      <path id="Path_56" data-name="Path 56" d="M236.406,389.355,73.632,304.889c-4.338-2.251-7.23-6.919-7.333-12.714l162.774,84.466C229.176,382.436,232.068,387.1,236.406,389.355Z" fill="none"/>
    </clipPath>
    <clipPath id="clip-path-4">
      <path id="Path_70" data-name="Path 70" d="M228.862,364.742,66.088,280.276c-.158-8.959,6.409-17.366,14.653-18.856l162.774,84.466C235.271,347.376,228.7,355.783,228.862,364.742Z" fill="none"/>
    </clipPath>
    <linearGradient id="linear-gradient-8" y1="0.5" x2="1" y2="0.5" gradientUnits="objectBoundingBox">
      <stop offset="0" stop-color="#1a2536"/>
      <stop offset="0.566" stop-color="#355b85"/>
      <stop offset="0.722" stop-color="#355881"/>
      <stop offset="0.877" stop-color="#355275"/>
      <stop offset="1" stop-color="#354a66"/>
    </linearGradient>
    <linearGradient id="linear-gradient-9" y1="0.5" x2="1" y2="0.5" gradientUnits="objectBoundingBox">
      <stop offset="0" stop-color="#1a2536"/>
      <stop offset="1" stop-color="#355b85"/>
    </linearGradient>
    <linearGradient id="linear-gradient-10" y1="0.5" x2="1" y2="0.5" gradientUnits="objectBoundingBox">
      <stop offset="0" stop-color="#223247"/>
      <stop offset="1" stop-color="#354963"/>
    </linearGradient>
  </defs>
  <g id="Group_55" data-name="Group 55" transform="translate(-62.354 -44.549)">
    <g id="Group_3" data-name="Group 3">
      <path id="Path_1" data-name="Path 1" d="M315.385,434.1c-114.683-64.02-160.88-30.9-195.945-49.012-24.192-12.5-37-41.793-34.149-68.872,1.759-16.735,8.634-32.642,10.075-49.407a77.768,77.768,0,0,0-11.624-47.772c-4.518-7.157-10.22-13.584-13.981-21.167-4.046-8.158-5.661-17.3-6.622-26.354-1.087-10.239-1.376-20.745,1.329-30.68,4.486-16.472,16.767-29.761,30.354-40.1,31.693-24.109,71.68-35.274,111.366-38.555,21.874-1.808,44.477-1.274,64.925,6.7s38.525,24.462,43.828,45.761c2.411,9.685,2.15,19.939,5.137,29.462,7.918,25.245,35.158,37.937,58.774,49.866,34.653,17.5,69.464,42.552,79.955,79.931,5.74,20.451,3.416,42.341-1.4,63.029-5.5,23.614-14.071,50.193-30.737,70.86a94.927,94.927,0,0,1-43.334,30.467c-19.858,7.005-47.622,5.439-67.948-4.16" fill="#d2e9f9"/>
      <path id="Path_2" data-name="Path 2" d="M349.842,404.156c26.158-3.823,43.393-13.69,58.825-31.841s17.5-57.476,17.347-69.372c-.137-10.47-1.591-20.716-5.274-30.373A106.439,106.439,0,0,0,395.3,245.445c-24.568-18.829-54.048-28.814-80.187-44.914-14.01-8.629-26.488-19.911-34.244-34.6-4.461-8.45-6.8-17.89-11.757-26.088-4.626-7.647-11.889-13.781-19.77-17.883-28.29-14.723-67.528-4.027-92.111,13.726-11.9,8.595-19.512,20.788-20.1,35.627-.564,14.35,3.914,28.649,8.394,42.111,5.78,17.369,7.865,33.864,4.767,52.014-2.743,16.076-9.868,32.3-5.976,48.773,5.971,25.262,31.121,42.657,53.908,48.816C262.269,380.333,324.089,407.918,349.842,404.156Z" fill="#b2d9ed"/>
      <path id="Path_3" data-name="Path 3" d="M78.5,99.167S118.5,65,170,58.833C170,58.833,104,45.667,78.5,99.167Z" fill="#d2e9f9"/>
      <path id="Path_4" data-name="Path 4" d="M103.452,388.5s25.8,17.25,68.048,9.75c0,0-27.249,13.5-46.625,9.75S103.452,388.5,103.452,388.5Z" fill="#d2e9f9"/>
      <path id="Path_5" data-name="Path 5" d="M79.833,348.038s-8.833-21.871,0-40.538C79.833,307.5,55.833,325.576,79.833,348.038Z" fill="#d2e9f9"/>
      <path id="Path_6" data-name="Path 6" d="M437.978,225S469,247.75,468.75,285.25C468.75,285.25,478.8,228.831,437.978,225Z" fill="#d2e9f9"/>
      <path id="Path_7" data-name="Path 7" d="M291.5,68.25S314,80.5,320.25,105C320.25,105,320,66,291.5,68.25Z" fill="#d2e9f9"/>
      <path id="Path_8" data-name="Path 8" d="M325.833,92c4.167,25-4.691,48.9,9.828,63.776,0,0-4.64-18.46.261-37.374S325.833,92,325.833,92Z" fill="#d2e9f9"/>
    </g>
    <g id="OBJECTS">
      <g id="Group_7" data-name="Group 7">
        <g id="Group_4" data-name="Group 4" opacity="0.21" style="mix-blend-mode: multiply;isolation: isolate">
          <path id="Path_9" data-name="Path 9" d="M401.033,321.236s6.948,6.628,25.845-11.015c20.085-18.753,13.544-25.76,13.544-25.76L223.457,52.076S230,59.083,210.3,77.47s-26.236,11.381-26.236,11.381Z" fill="#606060"/>
          <path id="Path_10" data-name="Path 10" d="M271.8,143.346c19.7-18.388,13.153-25.395,13.153-25.395l65.667,70.334s6.541,7.007-13.544,25.76c-18.9,17.643-25.845,11.015-25.845,11.015l-65.667-70.334S252.111,161.733,271.8,143.346Z" fill="#606060" opacity="0.25" style="mix-blend-mode: multiply;isolation: isolate"/>
          <path id="Path_11" data-name="Path 11" d="M268.874,140.205c19.694-18.387,13.152-25.394,13.152-25.394l65.667,70.334s6.542,7.007-13.544,25.759c-18.9,17.644-25.845,11.016-25.845,11.016l-65.666-70.334S249.179,158.593,268.874,140.205Z" fill="#606060"/>
          <path id="Path_12" data-name="Path 12" d="M302.915,176.666c19.694-18.387,13.152-25.394,13.152-25.394l9.11,9.757s6.541,7.006-13.544,25.759c-18.9,17.643-25.845,11.015-25.845,11.015l-9.109-9.756S283.221,195.053,302.915,176.666Z" fill="#606060" opacity="0.25" style="mix-blend-mode: multiply;isolation: isolate"/>
          <path id="Path_13" data-name="Path 13" d="M299.983,173.526c19.694-18.387,13.153-25.394,13.153-25.394l9.109,9.756s6.542,7.007-13.544,25.76c-18.9,17.643-25.845,11.015-25.845,11.015l-9.109-9.756S280.289,191.913,299.983,173.526Z" fill="#606060"/>
          <ellipse id="Ellipse_1" data-name="Ellipse 1" cx="26.944" cy="10.297" rx="26.944" ry="10.297" transform="translate(177.041 81.324) rotate(-43.035)" fill="#606060"/>
          <ellipse id="Ellipse_2" data-name="Ellipse 2" cx="26.944" cy="10.297" rx="26.944" ry="10.297" transform="translate(177.041 81.324) rotate(-43.035)" fill="#606060" opacity="0.1" style="mix-blend-mode: multiply;isolation: isolate"/>
          <path id="Path_14" data-name="Path 14" d="M201.749,77.979s9.079-12.03,9.714-15.172-1.265-2.108-3.284-.531-10.56,12.1-10.56,12.1Z" fill="#606060"/>
          <path id="Path_15" data-name="Path 15" d="M201.749,77.979s9.079-12.03,9.714-15.172-1.265-2.108-3.284-.531-10.56,12.1-10.56,12.1Z" fill="#606060" opacity="0.05" style="mix-blend-mode: multiply;isolation: isolate"/>
          <path id="Path_16" data-name="Path 16" d="M196.735,62.937c10.877-10.155,22.841-15.018,26.722-10.861a4.816,4.816,0,0,1,1.188,3.01,4.762,4.762,0,0,0-.845-1.15,1.009,1.009,0,0,0-.09-.18c-1.981-2.54-4.906-1.83-7.61-1.013-4.188,1.266-11.647,6.794-16.524,11.4-3.753,3.545-9.605,9.908-9.8,15.447a2.89,2.89,0,0,0,1.877,3.141c.875.52,2.6-.014,3.987-.644,5.137-2.335,13.378-13.726,15.731-21.138l7.783,7.615a64.058,64.058,0,0,1-8.361,9.426c-10.876,10.156-22.84,15.018-26.721,10.862S185.859,73.092,196.735,62.937Z" fill="#606060"/>
          <path id="Path_17" data-name="Path 17" d="M191.04,82.429a2.809,2.809,0,0,0,.609.3c.875.52,2.6-.014,3.987-.644,5.137-2.335,13.378-13.726,15.731-21.138l7.783,7.615a64.058,64.058,0,0,1-8.361,9.426,58.739,58.739,0,0,1-13.945,9.886C194.856,86.115,192.9,84.325,191.04,82.429Z" fill="#606060"/>
        </g>
        <g id="Group_6" data-name="Group 6">
          <g id="Group_5" data-name="Group 5">
            <path id="Path_18" data-name="Path 18" d="M398.033,325.236s6.948,6.628,25.845-11.015c20.085-18.753,13.544-25.76,13.544-25.76L220.457,56.076S227,63.083,207.3,81.47s-26.236,11.381-26.236,11.381Z" fill="url(#linear-gradient)"/>
            <path id="Path_19" data-name="Path 19" d="M268.8,147.346c19.7-18.388,13.153-25.395,13.153-25.395l65.667,70.334s6.541,7.007-13.544,25.76c-18.9,17.643-25.845,11.015-25.845,11.015l-65.667-70.334S249.111,165.733,268.8,147.346Z" fill="#606060" opacity="0.25" style="mix-blend-mode: multiply;isolation: isolate"/>
            <path id="Path_20" data-name="Path 20" d="M265.874,144.205c19.694-18.387,13.152-25.394,13.152-25.394l65.667,70.334s6.542,7.007-13.544,25.759c-18.9,17.644-25.845,11.016-25.845,11.016l-65.666-70.334S246.179,162.593,265.874,144.205Z" fill="url(#linear-gradient-2)"/>
            <path id="Path_21" data-name="Path 21" d="M299.915,180.666c19.694-18.387,13.152-25.394,13.152-25.394l9.11,9.757s6.541,7.006-13.544,25.759c-18.9,17.643-25.845,11.015-25.845,11.015l-9.109-9.756S280.221,199.053,299.915,180.666Z" fill="#606060" opacity="0.25" style="mix-blend-mode: multiply;isolation: isolate"/>
            <path id="Path_22" data-name="Path 22" d="M296.983,177.526c19.694-18.387,13.153-25.394,13.153-25.394l9.109,9.756s6.542,7.007-13.544,25.76c-18.9,17.643-25.845,11.015-25.845,11.015l-9.109-9.756S277.289,195.913,296.983,177.526Z" fill="url(#linear-gradient-3)"/>
            <ellipse id="Ellipse_3" data-name="Ellipse 3" cx="26.944" cy="10.297" rx="26.944" ry="10.297" transform="translate(174.041 85.324) rotate(-43.035)" fill="url(#linear-gradient-4)"/>
            <ellipse id="Ellipse_4" data-name="Ellipse 4" cx="26.944" cy="10.297" rx="26.944" ry="10.297" transform="translate(174.041 85.324) rotate(-43.035)" fill="#606060" opacity="0.1" style="mix-blend-mode: multiply;isolation: isolate"/>
            <path id="Path_23" data-name="Path 23" d="M198.749,81.979s9.079-12.03,9.714-15.172-1.265-2.108-3.284-.531-10.56,12.1-10.56,12.1Z" fill="url(#linear-gradient-5)"/>
            <path id="Path_24" data-name="Path 24" d="M198.749,81.979s9.079-12.03,9.714-15.172-1.265-2.108-3.284-.531-10.56,12.1-10.56,12.1Z" fill="#606060" opacity="0.05" style="mix-blend-mode: multiply;isolation: isolate"/>
            <path id="Path_25" data-name="Path 25" d="M193.735,66.937c10.877-10.155,22.841-15.018,26.722-10.861a4.816,4.816,0,0,1,1.188,3.01,4.762,4.762,0,0,0-.845-1.15,1.009,1.009,0,0,0-.09-.18c-1.981-2.54-4.906-1.83-7.61-1.013-4.188,1.266-11.647,6.794-16.524,11.4-3.753,3.545-9.605,9.908-9.8,15.447a2.89,2.89,0,0,0,1.877,3.141c.875.52,2.6-.014,3.987-.644,5.137-2.335,13.378-13.726,15.731-21.138l7.783,7.615a64.058,64.058,0,0,1-8.361,9.426c-10.876,10.156-22.84,15.018-26.721,10.862S182.859,77.092,193.735,66.937Z" fill="url(#linear-gradient-6)"/>
            <path id="Path_26" data-name="Path 26" d="M188.04,86.429a2.809,2.809,0,0,0,.609.3c.875.52,2.6-.014,3.987-.644,5.137-2.335,13.378-13.726,15.731-21.138l7.783,7.615a64.058,64.058,0,0,1-8.361,9.426,58.739,58.739,0,0,1-13.945,9.886C191.856,90.115,189.9,88.325,188.04,86.429Z" fill="url(#linear-gradient-7)"/>
          </g>
        </g>
      </g>
      <g id="Group_38" data-name="Group 38">
        <g id="Group_12" data-name="Group 12" opacity="0.21" style="mix-blend-mode: multiply;isolation: isolate">
          <path id="Path_27" data-name="Path 27" d="M360.8,362.709,198.025,278.243l74.874-12.02,162.774,84.466Z" fill="#606060"/>
          <path id="Path_28" data-name="Path 28" d="M418.561,328.389a14.811,14.811,0,0,0-.417,2.115l-33.1,5.314a.834.834,0,0,1-.962-.869,1.18,1.18,0,0,1,.926-1.173Z" fill="#606060"/>
          <path id="Path_29" data-name="Path 29" d="M418.173,340.375l.015.855c0,.063,0,.126.005.189.012.334.039.666.077.989l-63.942,10.265a.833.833,0,0,1-.954-.871,1.181,1.181,0,0,1,.918-1.172Z" fill="#606060"/>
          <path id="Path_30" data-name="Path 30" d="M418.05,333.417l.036,2.034-95.894,15.4a.834.834,0,0,1-.962-.87,1.172,1.172,0,0,1,.926-1.165Z" fill="#606060"/>
          <path id="Path_31" data-name="Path 31" d="M338.843,357.965a.842.842,0,0,1,.962.87,1.182,1.182,0,0,1-.926,1.173l-74.552,11.968a.834.834,0,0,1-.962-.87,1.182,1.182,0,0,1,.926-1.173Z" fill="#606060"/>
          <g id="Group_9" data-name="Group 9">
            <g id="Group_8" data-name="Group 8" clip-path="url(#clip-path)">
              <path id="Path_32" data-name="Path 32" d="M239.406,385.355,76.632,300.889c-4.338-2.251-7.23-6.919-7.333-12.714l162.774,84.466c.1,5.8,2.995,10.463,7.333,12.714" fill="#606060"/>
            </g>
          </g>
          <path id="Path_34" data-name="Path 34" d="M272.208,227.148,195.9,239.4,83.662,257.433l162.555,84.5,112.456-18.07,76.309-12.25Z" fill="#606060"/>
          <path id="Path_35" data-name="Path 35" d="M434.982,311.614l.1,5.779-11.3,1.814L247.991,347.428c-6.214,1-11.2,7.319-11.084,14.045l.156,8.835c.119,6.725,5.3,11.414,11.517,10.416L360.8,362.709l74.874-12.02.1,5.771-74.79,12.006-113.4,18.2c-8.526,1.194-15.353-5.071-15.512-14.03l-.211-11.9c-.158-8.959,6.409-17.366,14.653-18.856l112.158-18.022Z" fill="#606060"/>
          <path id="Path_36" data-name="Path 36" d="M418.263,342.409c.562,5.125,4.156,8.825,8.773,9.3a11.157,11.157,0,0,1-2.663.794L248.58,380.724c-6.214,1-11.4-3.691-11.517-10.416l-.156-8.835c-.119-6.726,4.87-13.047,11.084-14.045l175.793-28.221a10.319,10.319,0,0,1,2.676-.072,14.392,14.392,0,0,0-7.9,9.254l-33.555,5.387a1.18,1.18,0,0,0-.926,1.173.834.834,0,0,0,.962.869l33.09-5.312a13.361,13.361,0,0,0-.1,1.89l.018,1.021-95.894,15.394a1.172,1.172,0,0,0-.926,1.165.834.834,0,0,0,.962.87l95.894-15.4.087,4.924L354.292,350.63a1.181,1.181,0,0,0-.918,1.172.833.833,0,0,0,.954.871Zm-79.384,17.6a1.182,1.182,0,0,0,.926-1.173.842.842,0,0,0-.962-.87l-74.552,11.968a1.182,1.182,0,0,0-.926,1.173.834.834,0,0,0,.962.87l74.552-11.968" fill="#606060"/>
          <path id="Path_37" data-name="Path 37" d="M257.532,355c8.482-1.044,16.913-2.025,25.321-3.6,15.321-2.863,30.487-5.255,45.936-7.269,8.491-1.107,16.95-2.442,25.42-3.7,8.154-1.212,16.478-1.912,24.5-3.843q2.751-.662,5.5-1.2a.952.952,0,0,1-.125-.447,1.179,1.179,0,0,1,.926-1.172l33.555-5.387a14.392,14.392,0,0,1,7.9-9.254,10.319,10.319,0,0,0-2.676.072L247.991,347.428c-5.381.864-9.836,5.721-10.859,11.374C244.008,358.058,250.645,355.853,257.532,355Z" fill="#606060"/>
          <path id="Path_38" data-name="Path 38" d="M232.073,372.641,69.3,288.175l-.212-11.962L231.86,360.583Z" fill="#606060"/>
          <g id="Group_11" data-name="Group 11">
            <g id="Group_10" data-name="Group 10" clip-path="url(#clip-path-2)">
              <path id="Path_39" data-name="Path 39" d="M231.862,361.008,69.088,277.1a23.791,23.791,0,0,1,1.045-7.291l162.774,84.466a18.806,18.806,0,0,0-1.045,6.463" fill="#606060"/>
              <path id="Path_40" data-name="Path 40" d="M232.907,354.279,70.133,269.813a20.049,20.049,0,0,1,1.1-2.588l162.774,84.466a20.049,20.049,0,0,0-1.1,2.588" fill="#606060"/>
              <path id="Path_41" data-name="Path 41" d="M234.012,351.691,71.238,267.225a20.358,20.358,0,0,1,1.211-2.053l162.774,84.467a20.234,20.234,0,0,0-1.211,2.052" fill="#606060"/>
              <path id="Path_42" data-name="Path 42" d="M235.223,349.639,72.449,265.172a20.058,20.058,0,0,1,1.347-1.779L236.57,347.859a19.922,19.922,0,0,0-1.347,1.78" fill="#606060"/>
              <path id="Path_43" data-name="Path 43" d="M236.57,347.859,73.8,263.393a19.24,19.24,0,0,1,1.537-1.614l162.774,84.466a19.393,19.393,0,0,0-1.537,1.614" fill="#606060"/>
              <path id="Path_44" data-name="Path 44" d="M238.107,346.245,75.333,261.779a18.576,18.576,0,0,1,1.83-1.507l162.774,84.466a18.576,18.576,0,0,0-1.83,1.507" fill="#606060"/>
              <path id="Path_45" data-name="Path 45" d="M239.937,344.738,77.163,260.272a17.289,17.289,0,0,1,2.453-1.479L242.39,343.259a17.289,17.289,0,0,0-2.453,1.479" fill="#606060"/>
              <path id="Path_46" data-name="Path 46" d="M242.39,343.259,79.616,258.793a15.58,15.58,0,0,1,4.125-1.373l162.774,84.466a15.581,15.581,0,0,0-4.125,1.373" fill="#606060"/>
            </g>
          </g>
          <path id="Path_48" data-name="Path 48" d="M287.464,355.873s5.833,9.167,9.5,24,19.885,17.167,19.885,17.167-5.385-4.834-6.385-9.167c0,0,8.166,5.833,13.833,5.833,0,0-11.2-8.2-11.936-17.434s-4.564-21.277-7.231-23.588Z" fill="#606060"/>
          <path id="Path_49" data-name="Path 49" d="M309.177,360.959c-1.315-4.021-2.807-7.2-4.047-8.275l-17.666,3.189a66.368,66.368,0,0,1,4.208,8.3C297.383,362.461,303.3,361.859,309.177,360.959Z" fill="#606060"/>
        </g>
        <g id="Group_37" data-name="Group 37">
          <g id="Group_33" data-name="Group 33">
            <g id="Group_32" data-name="Group 32">
              <g id="Group_31" data-name="Group 31" style="isolation: isolate">
                <g id="Group_16" data-name="Group 16">
                  <path id="Path_50" data-name="Path 50" d="M357.8,366.709,195.025,282.243l74.874-12.02,162.774,84.466Z" fill="#506f97"/>
                </g>
                <g id="Group_17" data-name="Group 17">
                  <path id="Path_51" data-name="Path 51" d="M415.561,332.389a14.811,14.811,0,0,0-.417,2.115l-33.1,5.314a.834.834,0,0,1-.962-.869,1.18,1.18,0,0,1,.926-1.173Z" fill="#e8dab5"/>
                </g>
                <g id="Group_18" data-name="Group 18">
                  <path id="Path_52" data-name="Path 52" d="M415.173,344.375l.015.855c0,.063,0,.126.005.189.012.334.039.666.077.989l-63.942,10.265a.833.833,0,0,1-.954-.871,1.181,1.181,0,0,1,.918-1.172Z" fill="#e8dab5"/>
                </g>
                <g id="Group_19" data-name="Group 19">
                  <path id="Path_53" data-name="Path 53" d="M415.05,337.417l.036,2.034-95.894,15.4a.834.834,0,0,1-.962-.87,1.172,1.172,0,0,1,.926-1.165Z" fill="#e8dab5"/>
                </g>
                <g id="Group_20" data-name="Group 20">
                  <path id="Path_54" data-name="Path 54" d="M335.843,361.965a.842.842,0,0,1,.962.87,1.182,1.182,0,0,1-.926,1.173l-74.552,11.968a.834.834,0,0,1-.962-.87,1.182,1.182,0,0,1,.926-1.173Z" fill="#e8dab5"/>
                </g>
                <g id="Group_23" data-name="Group 23" style="isolation: isolate">
                  <g id="Group_22" data-name="Group 22" clip-path="url(#clip-path-3)">
                    <g id="Group_21" data-name="Group 21" style="isolation: isolate">
                      <path id="Path_55" data-name="Path 55" d="M236.406,389.355,73.632,304.889c-4.338-2.251-7.23-6.919-7.333-12.714l162.774,84.466c.1,5.8,2.995,10.463,7.333,12.714" fill="#3b526f"/>
                    </g>
                  </g>
                </g>
                <path id="Path_57" data-name="Path 57" d="M269.208,231.148,192.9,243.4,80.662,261.433l162.555,84.5,112.456-18.07,76.309-12.25Z" fill="#506f97"/>
                <g id="Group_24" data-name="Group 24">
                  <path id="Path_58" data-name="Path 58" d="M431.982,315.614l.1,5.779-11.3,1.814L244.991,351.428c-6.214,1-11.2,7.319-11.084,14.045l.156,8.835c.119,6.725,5.3,11.414,11.517,10.416L357.8,366.709l74.874-12.02.1,5.771-74.79,12.006-113.4,18.2c-8.526,1.194-15.353-5.071-15.512-14.03l-.211-11.9c-.158-8.959,6.409-17.366,14.653-18.856l112.158-18.022Z" fill="#6389bb"/>
                </g>
                <g id="Group_25" data-name="Group 25">
                  <path id="Path_59" data-name="Path 59" d="M415.263,346.409c.562,5.125,4.156,8.825,8.773,9.3a11.157,11.157,0,0,1-2.663.794L245.58,384.724c-6.214,1-11.4-3.691-11.517-10.416l-.156-8.835c-.119-6.726,4.87-13.047,11.084-14.045l175.793-28.221a10.319,10.319,0,0,1,2.676-.072,14.392,14.392,0,0,0-7.9,9.254l-33.555,5.387a1.18,1.18,0,0,0-.926,1.173.834.834,0,0,0,.962.869l33.09-5.312a13.361,13.361,0,0,0-.1,1.89l.018,1.021-95.894,15.394a1.172,1.172,0,0,0-.926,1.165.834.834,0,0,0,.962.87l95.894-15.4.087,4.924L351.292,354.63a1.181,1.181,0,0,0-.918,1.172.833.833,0,0,0,.954.871Zm-79.384,17.6a1.182,1.182,0,0,0,.926-1.173.842.842,0,0,0-.962-.87l-74.552,11.968a1.182,1.182,0,0,0-.926,1.173.834.834,0,0,0,.962.87l74.552-11.968" fill="#f5edd5"/>
                </g>
                <g id="Group_26" data-name="Group 26" style="mix-blend-mode: multiply;isolation: isolate">
                  <path id="Path_60" data-name="Path 60" d="M254.532,359c8.482-1.044,16.913-2.025,25.321-3.6,15.321-2.863,30.487-5.255,45.936-7.269,8.491-1.107,16.95-2.442,25.42-3.7,8.154-1.212,16.478-1.912,24.5-3.843q2.751-.662,5.5-1.2a.952.952,0,0,1-.125-.447,1.179,1.179,0,0,1,.926-1.172l33.555-5.387a14.392,14.392,0,0,1,7.9-9.254,10.319,10.319,0,0,0-2.676.072L244.991,351.428c-5.381.864-9.836,5.721-10.859,11.374C241.008,362.058,247.645,359.853,254.532,359Z" fill="#e8dab5"/>
                </g>
                <g id="Group_27" data-name="Group 27">
                  <path id="Path_61" data-name="Path 61" d="M229.073,376.641,66.3,292.175l-.212-11.962L228.86,364.583Z" fill="#3a506d"/>
                </g>
                <g id="Group_30" data-name="Group 30" style="isolation: isolate">
                  <g id="Group_29" data-name="Group 29" clip-path="url(#clip-path-4)">
                    <g id="Group_28" data-name="Group 28" style="isolation: isolate">
                      <path id="Path_62" data-name="Path 62" d="M228.862,365.008,66.088,281.1a23.791,23.791,0,0,1,1.045-7.291l162.774,84.466a18.806,18.806,0,0,0-1.045,6.463" fill="#3b526f"/>
                      <path id="Path_63" data-name="Path 63" d="M229.907,358.279,67.133,273.813a20.049,20.049,0,0,1,1.1-2.588l162.774,84.466a20.049,20.049,0,0,0-1.1,2.588" fill="#3d5574"/>
                      <path id="Path_64" data-name="Path 64" d="M231.012,355.691,68.238,271.225a20.358,20.358,0,0,1,1.211-2.053l162.774,84.467a20.234,20.234,0,0,0-1.211,2.052" fill="#3f5878"/>
                      <path id="Path_65" data-name="Path 65" d="M232.223,353.639,69.449,269.172a20.058,20.058,0,0,1,1.347-1.779L233.57,351.859a19.922,19.922,0,0,0-1.347,1.78" fill="#425b7c"/>
                      <path id="Path_66" data-name="Path 66" d="M233.57,351.859,70.8,267.393a19.24,19.24,0,0,1,1.537-1.614l162.774,84.466a19.393,19.393,0,0,0-1.537,1.614" fill="#445e80"/>
                      <path id="Path_67" data-name="Path 67" d="M235.107,350.245,72.333,265.779a18.576,18.576,0,0,1,1.83-1.507l162.774,84.466a18.576,18.576,0,0,0-1.83,1.507" fill="#466185"/>
                      <path id="Path_68" data-name="Path 68" d="M236.937,348.738,74.163,264.272a17.289,17.289,0,0,1,2.453-1.479L239.39,347.259a17.289,17.289,0,0,0-2.453,1.479" fill="#486489"/>
                      <path id="Path_69" data-name="Path 69" d="M239.39,347.259,76.616,262.793a15.58,15.58,0,0,1,4.125-1.373l162.774,84.466a15.581,15.581,0,0,0-4.125,1.373" fill="#4b688d"/>
                    </g>
                  </g>
                </g>
              </g>
            </g>
            <path id="Path_71" data-name="Path 71" d="M284.464,359.873s5.833,9.167,9.5,24,19.885,17.167,19.885,17.167-5.385-4.834-6.385-9.167c0,0,8.166,5.833,13.833,5.833,0,0-11.2-8.2-11.936-17.434s-4.564-21.277-7.231-23.588Z" fill="#f47f60"/>
            <path id="Path_72" data-name="Path 72" d="M306.177,364.959c-1.315-4.021-2.807-7.2-4.047-8.275l-17.666,3.189a66.368,66.368,0,0,1,4.208,8.3C294.383,366.461,300.3,365.859,306.177,364.959Z" fill="#ce5245"/>
          </g>
        </g>
      </g>
      <path id="Path_73" data-name="Path 73" d="M373.684,295.678c1.918,5.446-90.511,30.4-140.531,26.006-17.606-1.547-101.051-44.159-104.6-50.644-7.8-14.261,74.181-16.86,124.354-18.557S369.482,283.747,373.684,295.678Z" fill="#606060" opacity="0.25" style="mix-blend-mode: multiply;isolation: isolate"/>
      <g id="Group_50" data-name="Group 50">
        <path id="Path_74" data-name="Path 74" d="M347.927,277.028s.5,25.56-96.8,27.463c-91.827,1.8-97.779-22.778-97.779-22.778l-1.293-66.085,194.593-3.805Z" fill="url(#linear-gradient-8)"/>
        <g id="Group_43" data-name="Group 43">
          <g id="Group_42" data-name="Group 42" style="isolation: isolate">
            <g id="Group_39" data-name="Group 39">
              <path id="Path_75" data-name="Path 75" d="M197.674,247.531l-109-56.564,209.05-23.951,109,56.564Z" fill="url(#linear-gradient-9)"/>
            </g>
            <g id="Group_40" data-name="Group 40">
              <path id="Path_76" data-name="Path 76" d="M197.4,260.507l-109-56.564.278-12.976,109,56.564Z" fill="#1a2536"/>
            </g>
            <g id="Group_41" data-name="Group 41">
              <path id="Path_77" data-name="Path 77" d="M197.674,247.531l209.05-23.951-.278,12.976L197.4,260.507Z" fill="url(#linear-gradient-10)"/>
            </g>
          </g>
        </g>
        <g id="Group_44" data-name="Group 44" opacity="0.08">
          <path id="Path_78" data-name="Path 78" d="M293.094,170.138c-11.455.822-22.915,1.621-34.326,2.944a214.262,214.262,0,0,0-32.061,5.775c-8.545,2.346-17.737,5.49-24.358,11.636-6.055,5.621-7.773,13.149-5.332,20.986,3.911,12.557,15.888,17.415,27.929,19.319,12.888,2.038,26.077,1.227,39.045.6,18.3-.891,36.664-.317,54.984-.933,15.963-.537,31.91-1.373,47.851-2.31l39.9-4.572L302.545,169.517C299.377,169.749,296.209,169.915,293.094,170.138Z" fill="#fafafa"/>
        </g>
        <g id="Group_49" data-name="Group 49">
          <path id="Path_79" data-name="Path 79" d="M126.553,348.629c-10.847-.3-21.2,4.325-31.007,9.12-.924.452-1.985,1.116-2,2.172,4.471,3.932,6.371,10.211,10.472,14.553,2.832,3,6.546,4.9,10.184,6.746a1.4,1.4,0,0,0,2.152-.437,55.321,55.321,0,0,0,12.477-31.114" fill="#e3a85b"/>
          <g id="Group_45" data-name="Group 45">
            <path id="Path_80" data-name="Path 80" d="M247.9,200.622a220.088,220.088,0,0,0-49.961,17.4c-13.981,6.87-31.835,15.3-36.452,31.523a274.109,274.109,0,0,0-5.9,26.973c-1.661,9.355-2.129,18.83-3.579,28.206a62.411,62.411,0,0,1-25.287,41.781c-2.823,2.016-.111,6.734,2.744,4.694a67.628,67.628,0,0,0,25.263-34.077c2.722-8.394,3.318-17.221,4.24-25.94a245.4,245.4,0,0,1,4.852-27.836c1.986-8.866,3.218-17.546,10.124-24.024,6.724-6.306,15.365-10.809,23.516-14.987a214.159,214.159,0,0,1,51.889-18.473c3.416-.749,1.97-5.992-1.446-5.243Z" fill="#e3a85b"/>
          </g>
          <g id="Group_46" data-name="Group 46">
            <path id="Path_81" data-name="Path 81" d="M247.9,200.622a220.088,220.088,0,0,0-49.961,17.4c-13.981,6.87-31.835,15.3-36.452,31.523a274.109,274.109,0,0,0-5.9,26.973c-1.661,9.355-2.129,18.83-3.579,28.206a62.411,62.411,0,0,1-25.287,41.781c-2.823,2.016-.111,6.734,2.744,4.694a67.628,67.628,0,0,0,25.263-34.077c2.722-8.394,3.318-17.221,4.24-25.94a245.4,245.4,0,0,1,4.852-27.836c1.986-8.866,3.218-17.546,10.124-24.024,6.724-6.306,15.365-10.809,23.516-14.987a214.159,214.159,0,0,1,51.889-18.473c3.416-.749,1.97-5.992-1.446-5.243Z" fill="#efc95b"/>
          </g>
          <g id="Group_47" data-name="Group 47">
            <path id="Path_82" data-name="Path 82" d="M134.984,339.387a61.171,61.171,0,0,1-8.265,7.121c-2.823,2.016-.111,6.734,2.744,4.694a70.938,70.938,0,0,0,8.187-6.833A15.291,15.291,0,0,1,134.984,339.387Z" fill="#e3a85b"/>
          </g>
          <g id="Group_48" data-name="Group 48">
            <path id="Path_83" data-name="Path 83" d="M247.9,200.622c-4.765,1.045-9.487,2.258-14.167,3.608.152,2.379-1.87,4.877-4.637,7.079q9.979-3.2,20.25-5.444C252.763,205.116,251.317,199.873,247.9,200.622Z" fill="#e3a85b"/>
          </g>
          <path id="Path_84" data-name="Path 84" d="M97.173,364.23c4.512-2.793,8.761-5.971,13.248-8.827,4.758-3.028,9.98-4.813,15.217-6.774-10.513-.025-20.561,4.46-30.092,9.12-.924.452-1.985,1.116-2,2.172A21.45,21.45,0,0,1,97.173,364.23Z" fill="#efc95b"/>
          <path id="Path_85" data-name="Path 85" d="M114.989,360.357a63.153,63.153,0,0,1,7.464-8.375,64.466,64.466,0,0,0-12.51,6.117c-3.923,2.594-7.706,5.361-11.694,7.828,1.3,2.13,2.512,4.343,3.967,6.346A64.936,64.936,0,0,0,114.989,360.357Z" fill="#efc95b"/>
          <path id="Path_86" data-name="Path 86" d="M108.939,378.356A40.606,40.606,0,0,0,120.6,364.1c2.12-4.339,3.4-9.213,6.419-12.979-5.755,3.265-9.263,9.426-13.615,14.272a58.429,58.429,0,0,1-9.884,8.513c.165.19.327.383.5.567A23.983,23.983,0,0,0,108.939,378.356Z" fill="#efc95b"/>
          <path id="Path_87" data-name="Path 87" d="M120,369.22a43.35,43.35,0,0,1-9.208,10.209c1.127.622,2.273,1.212,3.414,1.791a1.4,1.4,0,0,0,2.152-.437,55.269,55.269,0,0,0,12.2-28.406C124.631,357.159,123.351,364.046,120,369.22Z" fill="#efc95b"/>
          <path id="Path_88" data-name="Path 88" d="M132.475,350.542a6.417,6.417,0,1,1-6.417-6.418A6.417,6.417,0,0,1,132.475,350.542Z" fill="#efc95b"/>
          <path id="Path_89" data-name="Path 89" d="M127.933,355.584a6.41,6.41,0,0,1-4.665-10.814,6.412,6.412,0,1,0,7.456,10.169A6.384,6.384,0,0,1,127.933,355.584Z" fill="#e3a85b"/>
        </g>
        <path id="Path_90" data-name="Path 90" d="M353.315,207.375l9.732,5.165" fill="none" stroke="#fafafa" stroke-linecap="round" stroke-linejoin="round" stroke-width="4" opacity="0.17"/>
        <path id="Path_91" data-name="Path 91" d="M301.338,179.79c14.924,8.386,30.008,16.487,45.333,24.117" fill="none" stroke="#fafafa" stroke-linecap="round" stroke-linejoin="round" stroke-width="4" opacity="0.17"/>
        <line id="Line_1" data-name="Line 1" y2="26.087" transform="translate(338.922 250.04)" fill="none" stroke="#fafafa" stroke-linecap="round" stroke-linejoin="round" stroke-width="4" opacity="0.17"/>
      </g>
    </g>
  </g>
</svg>
