<svg height="512" viewBox="0 0 512 512" width="512" xmlns="http://www.w3.org/2000/svg"><g id="flat"><path d="m256.00012 80h-.00027a135.99985 135.99985 0 0 0 -135.99985 135.99985v.00024a145.7337 145.7337 0 0 0 67.49284 122.94991l20.50716 13.05v24h96v-24l20.50716-13.05a145.7337 145.7337 0 0 0 67.49284-122.94991v-.00021a135.99988 135.99988 0 0 0 -135.99988-135.99988z" fill="#ffc431"/><path d="m208 376h96v80h-96z" fill="#8098ab"/><path d="m280 376h-16v-80a8.00343 8.00343 0 0 1 1.25049-4.29492l52.55469-82.58594-13.80518-13.80514-18.34326 18.34278a8 8 0 0 1 -11.31348 0l-18.34326-18.34278-18.34326 18.34278a8 8 0 0 1 -11.31348 0l-24-24 11.31348-11.31348 18.34326 18.3427 18.34326-18.34278a8 8 0 0 1 11.31348 0l18.34326 18.34278 18.34326-18.34278a8 8 0 0 1 11.31348 0l24 24a8.00028 8.00028 0 0 1 1.09277 9.95166l-54.74951 86.03471z" fill="#ffe28f"/><path d="m208 456 24 32h48l24-32z" fill="#718799"/><g fill="#ffd873"><path d="m248 16h16v32h-16z"/><path d="m152 41.723h16v32h-16z" transform="matrix(.866 -.5 .5 .866 -7.426 87.733)"/><path d="m81.723 112h16v32h-16z" transform="matrix(.5 -.866 .866 .5 -65.99 141.703)"/><path d="m48 216h32v16h-32z"/><path d="m73.723 312h32v16h-32z" transform="matrix(.866 -.5 .5 .866 -147.979 87.733)"/><path d="m144 382.277h32v16h-32z" transform="matrix(.5 -.866 .866 .5 -257.99 333.703)"/><path d="m344 374.277h16v32h-16z" transform="matrix(.866 -.5 .5 .866 -147.979 228.287)"/><path d="m414.277 304h16v32h-16z" transform="matrix(.5 -.866 .866 .5 -65.989 525.703)"/><path d="m432 216h32v16h-32z"/><path d="m406.277 120h32v16h-32z" transform="matrix(.866 -.5 .5 .866 -7.426 228.287)"/><path d="m336 49.723h32v16h-32z" transform="matrix(.5 -.866 .866 .5 126.011 333.703)"/></g><path d="m304 391.57v16.86l-96 32v-16.86z" fill="#718799"/></g></svg>