<svg height="512" viewBox="0 0 512 512" width="512" xmlns="http://www.w3.org/2000/svg"><g id="flat"><path d="m155.82 306.78 15.16-10.1 47.25-.38 8.87 11.83 20.9 27.87 64 48v104h-216l-72-248v-120l56 8v96l56 96z" fill="#548aff"/><path d="m155.82 306.78 36.18 45.22 35.1-43.87-8.87-11.83-47.25.38z" fill="#ffbfa1"/><path d="m24 120v-56l24-40h40v48l16-16 16 8-8 32-32 32z" fill="#ffceb6"/><rect fill="#ffc431" height="176" rx="24" width="208" x="280" y="24"/><path d="m376 200-64 48v-48z" fill="#ffb401"/><path d="m192 352-32 32-24-64 19.82-13.22z" fill="#d1e4ff"/><path d="m248 336-24 48-32-32 35.1-43.87z" fill="#d1e4ff"/><path d="m56.00013 96.00008a8 8 0 0 1 -2.22369-11.093l2.68549-4.0321a37.87336 37.87336 0 0 1 21.29386-15.45859 8.10056 8.10056 0 0 1 10.24421 7.83012 7.91172 7.91172 0 0 1 -5.903 7.56715 21.91726 21.91726 0 0 0 -4.43292 1.78008 22.15621 22.15621 0 0 0 -7.89748 7.16896l-2.67365 4.014a8 8 0 0 1 -11.09282 2.22338z" fill="#ffb089"/><path d="m224 384-32 56-32-56 32-32z" fill="#bdd1f2"/><path d="m376 160h16v16h-16z" fill="#ffe28f"/><path d="m392 144h-16v-24a7.99866 7.99866 0 0 1 6.05957-7.76074l12.59766-3.14942a17.59085 17.59085 0 0 0 13.34277-17.08984v-4a24 24 0 0 0 -48 0v8h-16v-8a40 40 0 0 1 80 0v4a33.56611 33.56611 0 0 1 -25.46191 32.61133l-6.53809 1.63476z" fill="#ffe28f"/><path d="m136 184 24-16h64l24 24v64a56 56 0 0 1 -55.99994 56h-.00012a56 56 0 0 1 -55.99994-56z" fill="#ffceb6"/><path d="m184 280h-8v-16h8a8.00917 8.00917 0 0 0 8-8v-8h16v8a24.0275 24.0275 0 0 1 -24 24z" fill="#c78869"/><g fill="#91591c"><circle cx="168" cy="232" r="8"/><circle cx="216" cy="232" r="8"/><path d="m216 176 17.3436 11.5624a26.42217 26.42217 0 0 0 14.6564 4.4376v-12a36 36 0 0 0 -36-36h-36v32z"/></g><path d="m136 184h12.6863a27.31368 27.31368 0 0 1 19.31369 8 27.31369 27.31369 0 0 0 19.31369 8h.68632a28 28 0 0 0 28-28 28 28 0 0 0 -28-28h-20a32 32 0 0 0 -32 32z" fill="#b1712c"/></g></svg>