<svg height="512" viewBox="0 0 512 512" width="512" xmlns="http://www.w3.org/2000/svg"><g id="flat"><path d="m328 400-40 56h-16v32h-192v-32h-16l-40-56 21.14-91.62012a32.03675 32.03675 0 0 1 13.43-19.42988l61.43-40.95 17.14-22.85986 14.86-19.81006h48l14.86 19.81006 17.14 22.85986 61.42993 40.95a32.03659 32.03659 0 0 1 13.43007 19.42988z" fill="#548aff"/><path d="m176 264-32 32-24-48 17.14-22.86z" fill="#d1e4ff"/><path d="m232 248-24 48-32-32 38.86-38.86z" fill="#d1e4ff"/><path d="m312.00158 208a16 16 0 0 0 16 16h143.99983a16 16 0 0 0 16-16.00017l-.00124-160a16 16 0 0 0 -16-15.99983h-143.99964a16 16 0 0 0 -16 16.00053z" fill="#ffc431"/><path d="m312.002 80-48 64h48z" fill="#ffb401"/><path d="m400 88a32 32 0 0 0 -32 32 38.62739 38.62739 0 0 0 11.3137 27.31368l4.6863 4.68632h32l4.6863-4.6863a38.62739 38.62739 0 0 0 11.3137-27.3137 32 32 0 0 0 -32-32z" fill="#ffe28f"/><path d="m384 152h32v32h-32z" fill="#718799"/><path d="m392 184h16v16h-16z" fill="#62798c"/><g fill="#ffe28f"><path d="m392 56h16v16h-16z"/><path d="m352.402 72.402h16v16h-16z" transform="matrix(.707 -.707 .707 .707 48.711 278.399)"/><path d="m336 112h16v16h-16z"/><path d="m448 112h16v16h-16z"/><path d="m431.598 72.402h16v16h-16z" transform="matrix(.707 -.707 .707 .707 71.892 334.376)"/></g><path d="m137.14 225.14 14.86-19.81h48l14.86 19.81-38.86 38.86z" fill="#ffbfa1"/><path d="m120 96 24-16h64l24 24v64a56 56 0 0 1 -55.99994 56h-.00012a56 56 0 0 1 -55.99994-56z" fill="#ffceb6"/><path d="m168 192h-8v-16h8a8.00917 8.00917 0 0 0 8-8v-8h16v8a24.0275 24.0275 0 0 1 -24 24z" fill="#c78869"/><circle cx="152" cy="144" fill="#91591c" r="8"/><circle cx="200" cy="144" fill="#91591c" r="8"/><path d="m200 88 17.34361 11.5624a26.42214 26.42214 0 0 0 14.65639 4.4376v-12a36 36 0 0 0 -36-36h-36v32z" fill="#91591c"/><path d="m120 96h12.6863a27.31368 27.31368 0 0 1 19.3137 8 27.31368 27.31368 0 0 0 19.31369 8h.68631a28 28 0 0 0 28-28 28 28 0 0 0 -28-28h-20a32 32 0 0 0 -32 32z" fill="#b1712c"/><path d="m169.565 364.174-25.565-68.174 32-32 32 32-23.294 62.118z" fill="#bdd1f2"/><path d="m80 368v16h40l57.877-23.151-41.877-16.849h-24l-32 24v8" fill="#ffceb6"/><path d="m272 456h-32l-64-40-56 40h-40v32h192z" fill="#4976f2"/><path d="m120 392h-56v-16h54.45947l111.77246-44.709 5.94239 14.85546-113.20313 45.28127a8.00164 8.00164 0 0 1 -2.97119.57227z" fill="#4976f2"/><path d="m120 464h-40v-16h37.73584l135.69873-83.50684 8.38574 13.627-137.62744 84.69332a8.00463 8.00463 0 0 1 -4.19287 1.18652z" fill="#4976f2"/><path d="m200 352 32-24h24l24 24v32h-40l-16 8z" fill="#ffceb6"/></g></svg>